<svg id="bold" enable-background="new 0 0 32 32" height="512" viewBox="0 0 32 32" width="512" xmlns="http://www.w3.org/2000/svg"><path d="m26 32h-20c-3.314 0-6-2.686-6-6v-20c0-3.314 2.686-6 6-6h20c3.314 0 6 2.686 6 6v20c0 3.314-2.686 6-6 6z" fill="#ffe6e2"/><g fill="#fd907e"><path d="m10.166 18h-1c-.643 0-1.166-.523-1.166-1.167v-1.667c0-.643.523-1.166 1.166-1.166h1c.276 0 .5.224.5.5s-.224.5-.5.5h-1c-.091 0-.166.075-.166.167v1.667c0 .091.075.166.166.166h1c.276 0 .5.224.5.5s-.224.5-.5.5z"/><path d="m13.5 18h-1.667c-.276 0-.5-.224-.5-.5v-3c0-.276.224-.5.5-.5s.5.224.5.5v2.5h1.167c.276 0 .5.224.5.5s-.224.5-.5.5z"/><path d="m16 14c-.735 0-1.333.598-1.333 1.333v2.167c0 .276.224.5.5.5s.5-.224.5-.5v-.833h.667v.833c0 .276.224.5.5.5s.5-.224.5-.5v-2.167c-.001-.735-.599-1.333-1.334-1.333zm-.333 1.667v-.333c0-.185.149-.334.333-.334s.333.149.333.333v.333h-.666z"/><path d="m19.417 18h-.917c-.276 0-.5-.224-.5-.5s.224-.5.5-.5h.917c.138 0 .25-.112.25-.25s-.112-.25-.25-.25h-.167c-.689 0-1.25-.561-1.25-1.25s.561-1.25 1.25-1.25h.917c.276 0 .5.224.5.5s-.224.5-.5.5h-.917c-.138 0-.25.112-.25.25s.112.25.25.25h.167c.689 0 1.25.561 1.25 1.25s-.561 1.25-1.25 1.25z"/><path d="m22.75 18h-.917c-.276 0-.5-.224-.5-.5s.224-.5.5-.5h.917c.138 0 .25-.112.25-.25s-.112-.25-.25-.25h-.167c-.689 0-1.25-.561-1.25-1.25s.561-1.25 1.251-1.25h.916c.276 0 .5.224.5.5s-.224.5-.5.5h-.917c-.138 0-.25.112-.25.25s.112.25.25.25h.167c.689 0 1.25.561 1.25 1.25s-.56 1.25-1.25 1.25z"/></g><path d="m20.667 24h-9.334c-1.103 0-2-.897-2-2v-2c0-.368.298-.667.667-.667s.667.299.667.667v2c0 .368.299.667.667.667h9.334c.368 0 .667-.299.667-.667v-2c0-.368.298-.667.667-.667s.667.299.667.667v2c-.002 1.103-.899 2-2.002 2z" fill="#fc573b"/><path d="m22 12.667c-.368 0-.667-.299-.667-.667v-2c0-.368-.299-.667-.667-.667h-9.334c-.368 0-.667.299-.667.667v2c0 .368-.298.667-.667.667-.368 0-.667-.299-.667-.667v-2c0-1.103.897-2 2-2h9.334c1.103 0 2 .897 2 2v2c.002.368-.296.667-.665.667z" fill="#fc573b"/></svg>